<svg width="57" height="56" viewBox="0 0 57 56" fill="none" xmlns="http://www.w3.org/2000/svg">
<g clip-path="url(#clip0_372_1359)">
<g filter="url(#filter0_d_372_1359)">
<path d="M53.3614 28C53.3614 41.8071 42.3407 53 28.746 53C15.1513 53 4.13062 41.8071 4.13062 28C4.13062 14.1929 15.1513 3 28.746 3C42.3407 3 53.3614 14.1929 53.3614 28Z" fill="#FEFCE8"/>
</g>
<path d="M53.3614 28.0001C53.3614 41.8072 42.3407 53.0001 28.746 53.0001C15.1513 53.0001 4.13062 41.8072 4.13062 28.0001C4.13062 14.1929 15.1513 32.5 28.746 32.5C42.3407 32.5 53.3614 14.1929 53.3614 28.0001Z" fill="#FEF9C3"/>
<path d="M26.9447 32.6904H30.508C31.272 32.6904 31.8912 33.3194 31.8912 34.0952C31.8912 34.8711 31.272 35.5 30.508 35.5H26.9447C26.1808 35.5 25.5615 34.8711 25.5615 34.0952C25.5615 33.3194 26.1808 32.6904 26.9447 32.6904Z" fill="#0284C7" stroke="#0284C7" stroke-width="0.450704"/>
<path d="M27.7615 15.3667C27.7615 14.8144 28.2023 14.3667 28.7461 14.3667C29.2899 14.3667 29.7307 14.8144 29.7307 15.3667V26.4226C29.7307 26.9749 29.2899 27.4226 28.7461 27.4226C28.2023 27.4226 27.7615 26.9749 27.7615 26.4226V15.3667Z" fill="#EAB308"/>
<path d="M34.5576 16.5668C34.9215 16.3557 35.146 15.9627 35.146 15.5371C35.146 14.6264 34.1774 14.0555 33.3989 14.5073L33.2528 14.5921C33.0616 14.7031 32.8452 14.7615 32.6249 14.7615H32.2973C32.0148 14.7615 31.7355 14.6997 31.4785 14.5804L26.7958 12.4064C26.5389 12.2871 26.2597 12.2253 25.9772 12.2253H25.6758C25.4362 12.2253 25.1987 12.2697 24.9748 12.3564L22.8452 13.1802C22.358 13.3688 22.0359 13.8434 22.0359 14.3731C22.0359 15.2672 22.9175 15.8843 23.7402 15.566L24.9748 15.0883C25.1987 15.0017 25.4362 14.9573 25.6758 14.9573H25.9772C26.2597 14.9573 26.5389 15.019 26.7958 15.1383L31.4785 17.3124C31.7355 17.4317 32.0148 17.4934 32.2973 17.4934H32.4381C32.7808 17.4934 33.1175 17.4026 33.4151 17.2299L34.5576 16.5668Z" fill="#EAB308"/>
<path d="M22.3293 21.0503C19.2166 18.8471 17.3059 16.1037 17.3059 12.6963C17.3059 6.6065 21.8474 2.00024 28.7462 2.00024C35.645 2.00024 40.1865 6.6065 40.1865 12.6963C40.1865 16.1037 38.2758 18.8471 35.1631 21.0503C34.5897 21.4561 34.2844 22.0204 34.1209 22.389C33.9426 22.791 33.8205 23.223 33.7301 23.6103C33.5743 24.2783 33.4588 25.0645 33.3579 25.7511C33.3434 25.8497 33.3292 25.9462 33.3153 26.04C33.2135 26.7239 33.1215 27.2842 33.0148 27.7145H33.0106H33.0006H32.9906H32.9806H32.9705H32.9605H32.9505H32.9404H32.9304H32.9202H32.9102H32.9H32.8899H32.8798H32.8696H32.8595H32.8493H32.8392H32.829H32.8188H32.8086H32.7983H32.7881H32.7779H32.7676H32.7574H32.747H32.7368H32.7265H32.7162H32.7059H32.6955H32.6852H32.6749H32.6645H32.6542H32.6438H32.6334H32.623H32.6126H32.6022H32.5918H32.5813H32.5709H32.5605H32.5499H32.5395H32.529H32.5185H32.508H32.4975H32.487H32.4765H32.4659H32.4554H32.4449H32.4343H32.4237H32.4132H32.4025H32.392H32.3814H32.3707H32.3601H32.3495H32.3388H32.3282H32.3176H32.3069H32.2963H32.2856H32.2749H32.2642H32.2535H32.2428H32.2321H32.2214H32.2106H32.1999H32.1892H32.1784H32.1677H32.1569H32.1461H32.1354H32.1246H32.1137H32.103H32.0922H32.0813H32.0705H32.0598H32.0489H32.0381H32.0272H32.0164H32.0055H31.9947H31.9838H31.9729H31.9621H31.9512H31.9402H31.9294H31.9185H31.9076H31.8966H31.8858H31.8749H31.8639H31.853H31.8421H31.8311H31.8201H31.8092H31.7983H31.7872H31.7763H31.7654H31.7543H31.7434H31.7324H31.7215H31.7104H31.6994H31.6884H31.6775H31.6664H31.6554H31.6444H31.6333H31.6223H31.6113H31.6003H31.5892H31.5782H31.5672H31.5561H31.545H31.534H31.523H31.5118H31.5008H31.4898H31.4787H31.4676H31.4565H31.4455H31.4343H31.4233H31.4122H31.4011H31.39H31.3789H31.3678H31.3568H31.3456H31.3345H31.3234H31.3124H31.3012H31.2901H31.279H31.2679H31.2567H31.2456H31.2345H31.2233H31.2123H31.2012H31.1901H31.1789H31.1678H31.1566H31.1455H31.1343H31.1232H31.1121H31.101H31.0898H31.0787H31.0676H31.0565H31.0453H31.0342H31.023H31.0119H31.0007H30.9896H30.9785H30.9673H30.9562H30.9451H30.9339H30.9227H30.9116H30.9005H30.8894H30.8782H30.8671H30.856H30.8449H30.8336H30.8225H30.8114H30.8003H30.7891H30.778H30.7669H30.7558H30.7446H30.7335H30.7224H30.7112H30.7001H30.689H30.6779H30.6667H30.6557H30.6446H30.6335H30.6223H30.6112H30.6001H30.5891H30.5779H30.5668H30.5557H30.5447H30.5335H30.5224H30.5114H30.5002H30.4892H30.4781H30.4671H30.4559H30.4449H30.4338H30.4228H30.4117H30.4006H30.3896H30.3785H30.3675H30.3565H30.3454H30.3343H30.3233H30.3123H30.3013H30.2902H30.2792H30.2683H30.2572H30.2462H30.2352H30.2243H30.2132H30.2022H30.1913H30.1802H30.1693H30.1583H30.1474H30.1364H30.1254H30.1145H30.1035H30.0926H30.0817H30.0708H30.0598H30.0489H30.038H30.027H30.0161H30.0053H29.9944H29.9834H29.9726H29.9617H29.9508H29.94H29.9291H29.9182H29.9074H29.8966H29.8857H29.8749H29.8641H29.8533H29.8424H29.8316H29.8209H29.81H29.7993H29.7885H29.7777H29.7669H29.7562H29.7454H29.7347H29.724H29.7132H29.7025H29.6918H29.6811H29.6704H29.6597H29.649H29.6383H29.6277H29.617H29.6064H29.5958H29.585H29.5745H29.5639H29.5532H29.5426H29.5321H29.5214H29.5109H29.5003H29.4897H29.4792H29.4687H29.4581H29.4476H29.4371H29.4265H29.4161H29.4056H29.3951H29.3846H29.3741H29.3637H29.3533H29.3428H29.3324H29.322H29.3115H29.3012H29.2907H29.2804H29.2701H29.2597H29.2493H29.239H29.2287H29.2184H29.208H29.1978H29.1875H29.1772H29.1669H29.1566H29.1464H29.1362H29.126H29.1158H29.1055H29.0954H29.0852H29.075H29.0649H29.0547H29.0446H29.0345H29.0244H29.0143H29.0042H28.9941H28.984H28.974H28.964H28.9539H28.9439H28.9339H28.9239H28.9139H28.904H28.894H28.8841H28.8742H28.8642H28.8543H28.8444H28.8346H28.8246H28.8148H28.8049H28.7952H28.7853H28.7755H28.7657H28.756H28.7462H28.7364H28.7267H28.7169H28.7071H28.6973H28.6876H28.6777H28.6679H28.6581H28.6483H28.6384H28.6286H28.6187H28.6089H28.5991H28.5892H28.5794H28.5695H28.5596H28.5497H28.5398H28.5299H28.52H28.5101H28.5002H28.4903H28.4803H28.4704H28.4604H28.4505H28.4405H28.4306H28.4206H28.4106H28.4007H28.3907H28.3807H28.3707H28.3607H28.3506H28.3407H28.3306H28.3206H28.3106H28.3005H28.2905H28.2804H28.2704H28.2603H28.2503H28.2402H28.2301H28.2201H28.2099H28.1999H28.1897H28.1796H28.1696H28.1594H28.1493H28.1391H28.129H28.1189H28.1087H28.0986H28.0884H28.0783H28.0681H28.058H28.0478H28.0376H28.0275H28.0172H28.0071H27.9969H27.9866H27.9765H27.9662H27.956H27.9458H27.9356H27.9254H27.9151H27.9049H27.8947H27.8844H27.8741H27.8638H27.8536H27.8434H27.833H27.8228H27.8125H27.8022H27.792H27.7816H27.7713H27.761H27.7507H27.7404H27.73H27.7198H27.7095H27.6991H27.6888H27.6784H27.6681H27.6578H27.6474H27.6371H27.6266H27.6163H27.606H27.5956H27.5852H27.5749H27.5644H27.5541H27.5436H27.5333H27.5229H27.5125H27.5021H27.4917H27.4813H27.4709H27.4604H27.45H27.4396H27.4291H27.4187H27.4083H27.3978H27.3874H27.3769H27.3665H27.3561H27.3456H27.3352H27.3247H27.3142H27.3038H27.2933H27.2828H27.2724H27.2618H27.2514H27.2409H27.2304H27.2199H27.2094H27.1989H27.1884H27.1779H27.1674H27.1569H27.1463H27.1358H27.1254H27.1148H27.1043H27.0938H27.0832H27.0727H27.0622H27.0516H27.0411H27.0306H27.02H27.0095H26.999H26.9884H26.9778H26.9672H26.9567H26.9462H26.9355H26.925H26.9145H26.9038H26.8933H26.8828H26.8721H26.8616H26.851H26.8404H26.8298H26.8193H26.8086H26.7981H26.7875H26.7769H26.7663H26.7558H26.7451H26.7345H26.724H26.7133H26.7027H26.692H26.6815H26.6709H26.6602H26.6496H26.6391H26.6284H26.6178H26.6072H26.5965H26.5859H26.5753H26.5647H26.5541H26.5435H26.5328H26.5222H26.5116H26.5009H26.4903H26.4797H26.469H26.4584H26.4478H26.4371H26.4265H26.4159H26.4052H26.3946H26.3839H26.3732H26.3626H26.352H26.3413H26.3307H26.3201H26.3094H26.2987H26.2881H26.2774H26.2668H26.2562H26.2455H26.2348H26.2242H26.2135H26.2029H26.1923H26.1815H26.1709H26.1603H26.1496H26.139H26.1283H26.1176H26.107H26.0964H26.0857H26.075H26.0644H26.0537H26.0431H26.0324H26.0217H26.0111H26.0005H25.9897H25.9791H25.9685H25.9578H25.9472H25.9365H25.9258H25.9152H25.9046H25.8939H25.8832H25.8726H25.8619H25.8513H25.8407H25.8299H25.8193H25.8087H25.798H25.7874H25.7768H25.766H25.7554H25.7447H25.7341H25.7235H25.7128H25.7022H25.6916H25.6809H25.6703H25.6597H25.649H25.6383H25.6277H25.617H25.6064H25.5958H25.5851H25.5745H25.564H25.5533H25.5427H25.5321H25.5214H25.5108H25.5002H25.4895H25.4789H25.4683H25.4577H25.4471H25.4365H25.4258H25.4153H25.4047H25.394H25.3834H25.3729H25.3622H25.3516H25.3411H25.3304H25.3198H25.3093H25.2986H25.2881H25.2775H25.2669H25.2563H25.2457H25.2351H25.2246H25.2139H25.2034H25.1929H25.1822H25.1717H25.1612H25.1505H25.14H25.1295H25.1189H25.1083H25.0978H25.0872H25.0767H25.0662H25.0556H25.0451H25.0345H25.024H25.0135H25.0029H24.9924H24.9819H24.9713H24.9608H24.9503H24.9398H24.9293H24.9188H24.9083H24.8978H24.8872H24.8768H24.8663H24.8557H24.8453H24.8348H24.8243H24.8139H24.8034H24.7929H24.7824H24.772H24.7615H24.7511H24.7405H24.7301H24.7197H24.7092H24.6988H24.6884H24.6779H24.6675H24.657H24.6466H24.6362H24.6257H24.6154H24.605H24.5945H24.5842H24.5737H24.5633H24.553H24.5425H24.5322H24.5218H24.5114H24.501H24.4906H24.4803H24.4776C24.3709 27.2842 24.2788 26.7239 24.177 26.04C24.1631 25.9462 24.1489 25.8497 24.1344 25.7511C24.0336 25.0645 23.9181 24.2782 23.7622 23.6103C23.6718 23.2229 23.5497 22.791 23.3714 22.389C23.2079 22.0204 22.9026 21.4561 22.3293 21.0503Z" stroke="#0284C7" stroke-width="2.70423"/>
<path d="M1.177 56L21.8539 32H24.8078L19.3924 40H38.1001L32.6847 32H35.6385L56.3155 56H49.4232L40.5616 44H16.9308L8.06931 56H1.177Z" fill="#0284C7"/>
</g>
<defs>
<filter id="filter0_d_372_1359" x="3.67991" y="3" width="50.1321" height="50.9014" filterUnits="userSpaceOnUse" colorInterpolationFilters="sRGB">
<feFlood flood-opacity="0" result="BackgroundImageFix"/>
<feColorMatrix in="SourceAlpha" type="matrix" values="0 0 0 0 0 0 0 0 0 0 0 0 0 0 0 0 0 0 127 0" result="hardAlpha"/>
<feOffset dy="0.450704"/>
<feGaussianBlur stdDeviation="0.225352"/>
<feComposite in2="hardAlpha" operator="out"/>
<feColorMatrix type="matrix" values="0 0 0 0 0 0 0 0 0 0 0 0 0 0 0 0 0 0 0.25 0"/>
<feBlend mode="normal" in2="BackgroundImageFix" result="effect1_dropShadow_372_1359"/>
<feBlend mode="normal" in="SourceGraphic" in2="effect1_dropShadow_372_1359" result="shape"/>
</filter>
<clipPath id="clip0_372_1359">
<rect width="56" height="56" fill="white" transform="translate(0.75)"/>
</clipPath>
</defs>
</svg>
