<svg width="400" height="142" viewBox="0 0 400 142" fill="none" xmlns="http://www.w3.org/2000/svg">
<g filter="url(#filter0_d_933_344)">
<path d="M127.938 71C127.938 101.635 103.142 126.469 72.5538 126.469C41.9658 126.469 17.1692 101.635 17.1692 71C17.1692 40.3655 41.9658 15.5312 72.5538 15.5312C103.142 15.5312 127.938 40.3655 127.938 71Z" fill="#FEFCE8"/>
</g>
<path d="M127.938 71.0002C127.938 101.635 103.142 126.469 72.5538 126.469C41.9658 126.469 17.1692 101.635 17.1692 71.0002C17.1692 40.3655 41.9658 80.9844 72.5538 80.9844C103.142 80.9844 127.938 40.3655 127.938 71.0002Z" fill="#FEF9C3"/>
<path d="M68.5006 81.4069H76.5181C78.237 81.4069 79.6302 82.8025 79.6302 84.5238C79.6302 86.2453 78.237 87.6407 76.5181 87.6407H68.5006C66.7819 87.6407 65.3884 86.2453 65.3884 84.5238C65.3884 82.8025 66.7819 81.4069 68.5006 81.4069Z" fill="#0284C7" stroke="#0284C7"/>
<path d="M70.3384 42.9697C70.3384 41.7443 71.3302 40.7509 72.5538 40.7509C73.7773 40.7509 74.7691 41.7443 74.7691 42.9697V67.4999C74.7691 68.7254 73.7773 69.7187 72.5538 69.7187C71.3302 69.7187 70.3384 68.7254 70.3384 67.4999V42.9697Z" fill="#EAB308"/>
<path d="M85.63 45.6327C86.4486 45.1643 86.9539 44.2924 86.9539 43.3481C86.9539 41.3274 84.7744 40.0608 83.0229 41.0632L82.6942 41.2513C82.2639 41.4976 81.777 41.6272 81.2814 41.6272H80.5441C79.9085 41.6272 79.2803 41.4901 78.702 41.2254L68.1659 36.4018C67.5879 36.1371 66.9596 36 66.324 36H65.6459C65.1067 36 64.5723 36.0985 64.0685 36.2909L59.2771 38.1187C58.1807 38.5371 57.4561 39.5902 57.4561 40.7654C57.4561 42.7492 59.4397 44.1184 61.2907 43.4122L64.0685 42.3523C64.5723 42.1601 65.1067 42.0616 65.6459 42.0616H66.324C66.9596 42.0616 67.5879 42.1985 68.1659 42.4632L78.702 47.287C79.2803 47.5517 79.9085 47.6886 80.5441 47.6886H80.8609C81.6321 47.6886 82.3898 47.4871 83.0593 47.104L85.63 45.6327Z" fill="#EAB308"/>
<path d="M58.1157 55.5804C51.1119 50.692 46.813 44.6051 46.813 37.0449C46.813 23.5332 57.0315 13.313 72.5535 13.313C88.0759 13.313 98.2943 23.5332 98.2943 37.0449C98.2943 44.6051 93.9951 50.692 86.9916 55.5804C85.7016 56.4807 85.0146 57.7328 84.6467 58.5506C84.2454 59.4425 83.9707 60.401 83.7674 61.2604C83.4169 62.7425 83.157 64.4869 82.93 66.0103C82.8974 66.229 82.8655 66.4431 82.834 66.6513C82.6052 68.1687 82.398 69.4118 82.1579 70.3666H82.1486H82.126H82.1036H82.081H82.0584H82.0358H82.0132H81.9906H81.968H81.9452H81.9226H81.8998H81.877H81.8542H81.8314H81.8085H81.7857H81.7629H81.7399H81.717H81.694H81.671H81.6479H81.6249H81.6018H81.5788H81.5555H81.5325H81.5092H81.4862H81.4629H81.4397H81.4164H81.3932H81.3699H81.3466H81.3231H81.2999H81.2764H81.2531H81.2296H81.2062H81.1827H81.1592H81.1357H81.112H81.0885H81.065H81.0413H81.0176H80.9942H80.9704H80.9468H80.923H80.8993H80.8756H80.8519H80.828H80.8043H80.7804H80.7567H80.7327H80.7088H80.6849H80.661H80.637H80.6131H80.5892H80.5653H80.5413H80.5172H80.4933H80.4691H80.445H80.421H80.3969H80.3727H80.3486H80.3244H80.3003H80.2762H80.252H80.2276H80.2035H80.1793H80.155H80.1306H80.1064H80.0821H80.0577H80.0333H80.0092H79.9848H79.9605H79.9359H79.9115H79.8871H79.8628H79.8382H79.8138H79.7894H79.7648H79.7402H79.7159H79.6913H79.6667H79.6421H79.6177H79.5932H79.5686H79.544H79.5194H79.4948H79.47H79.4454H79.4208H79.396H79.3714H79.3468H79.322H79.2974H79.2726H79.248H79.2232H79.1984H79.1735H79.149H79.1241H79.0993H79.0745H79.0497H79.0249H79.0001H78.9753H78.9505H78.9257H78.9008H78.876H78.851H78.8262H78.8014H78.7763H78.7515H78.7267H78.7017H78.6769H78.6518H78.627H78.602H78.5772H78.5521H78.5271H78.5023H78.4773H78.4522H78.4274H78.4024H78.3773H78.3523H78.3275H78.3025H78.2774H78.2524H78.2274H78.2023H78.1773H78.1523H78.1272H78.1024H78.0774H78.0523H78.0273H78.0023H77.977H77.952H77.927H77.9019H77.8769H77.8518H77.8268H77.8018H77.7768H77.7517H77.7267H77.7017H77.6764H77.6514H77.6263H77.6013H77.5763H77.5512H77.5262H77.5012H77.4759H77.4509H77.4258H77.4008H77.3758H77.3507H77.3257H77.3007H77.2756H77.2504H77.2253H77.2003H77.1753H77.1502H77.1252H77.1002H77.0751H77.0501H77.0251H77H76.975H76.95H76.9249H76.8999H76.8749H76.8501H76.825H76.8H76.775H76.7499H76.7249H76.7001H76.675H76.65H76.625H76.6002H76.5751H76.5501H76.5253H76.5002H76.4754H76.4504H76.4256H76.4006H76.3757H76.3507H76.3259H76.3011H76.276H76.2512H76.2264H76.2016H76.1768H76.1518H76.127H76.1021H76.0773H76.0525H76.0277H76.0029H75.9783H75.9535H75.9287H75.9039H75.8793H75.8545H75.8296H75.8051H75.7803H75.7557H75.7308H75.7063H75.6817H75.6569H75.6323H75.6077H75.5831H75.5585H75.5339H75.5093H75.4847H75.4601H75.4355H75.4109H75.3866H75.362H75.3374H75.313H75.2884H75.2641H75.2397H75.2151H75.1907H75.1664H75.142H75.1176H75.0933H75.0689H75.0445H75.0201H74.9958H74.9716H74.9473H74.9231H74.8987H74.8746H74.8502H74.8261H74.8019H74.7778H74.7536H74.7295H74.7053H74.6812H74.6573H74.6331H74.609H74.585H74.5609H74.537H74.513H74.4891H74.4652H74.441H74.4173H74.3934H74.3695H74.3456H74.3219H74.2979H74.2742H74.2503H74.2266H74.2029H74.1792H74.1555H74.1318H74.1081H74.0844H74.0609H74.0372H74.0137H73.99H73.9665H73.943H73.9195H73.8961H73.8726H73.8491H73.8256H73.8023H73.7789H73.7556H73.7323H73.7091H73.6856H73.6623H73.6393H73.616H73.5928H73.5697H73.5465H73.5234H73.5002H73.4771H73.4541H73.4311H73.4082H73.3852H73.3622H73.3393H73.3163H73.2935H73.2707H73.2478H73.225H73.2022H73.1796H73.1568H73.1342H73.1114H73.0888H73.0662H73.0436H73.021H72.9984H72.976H72.9534H72.931H72.9087H72.8863H72.8639H72.8415H72.8192H72.7968H72.7746H72.7525H72.7301H72.708H72.6858H72.6639H72.6417H72.6196H72.5976H72.5757H72.5535H72.5316H72.5097H72.4877H72.4656H72.4437H72.4217H72.3996H72.3774H72.3555H72.3333H72.3112H72.289H72.2669H72.2447H72.2226H72.2004H72.1783H72.1561H72.1337H72.1116H72.0892H72.067H72.0447H72.0225H72.0001H71.9778H71.9554H71.933H71.9106H71.8883H71.8659H71.8435H71.8211H71.7985H71.7762H71.7538H71.7312H71.7088H71.6862H71.6636H71.6412H71.6186H71.5961H71.5735H71.5509H71.5283H71.5057H71.4831H71.4605H71.4379H71.4151H71.3925H71.3699H71.347H71.3244H71.3016H71.2788H71.2562H71.2334H71.2106H71.1878H71.1649H71.1421H71.1193H71.0965H71.0737H71.0508H71.028H71.0052H70.9822H70.9594H70.9365H70.9135H70.8907H70.8676H70.8446H70.8218H70.7987H70.7757H70.7527H70.7298H70.7068H70.6838H70.6607H70.6377H70.6146H70.5914H70.5683H70.5453H70.5223H70.499H70.476H70.4529H70.4297H70.4066H70.3834H70.3601H70.337H70.3138H70.2905H70.2673H70.2442H70.221H70.1977H70.1744H70.1512H70.1279H70.1047H70.0814H70.0581H70.0346H70.0114H69.9881H69.9649H69.9414H69.9181H69.8946H69.8714H69.8479H69.8246H69.8011H69.7779H69.7544H69.7309H69.7077H69.6842H69.6607H69.6372H69.6137H69.5902H69.5668H69.5433H69.5198H69.4963H69.4728H69.4493H69.4259H69.4024H69.3789H69.3552H69.3317H69.3082H69.2845H69.261H69.2376H69.2138H69.1904H69.1667H69.1432H69.1195H69.0958H69.0723H69.0486H69.0249H69.0014H68.9777H68.954H68.9303H68.9068H68.8831H68.8594H68.8357H68.812H68.7883H68.7646H68.7409H68.7172H68.6935H68.6697H68.646H68.6223H68.5986H68.5747H68.551H68.5273H68.5036H68.4797H68.456H68.4323H68.4083H68.3846H68.3609H68.337H68.3133H68.2894H68.2657H68.2417H68.218H68.1941H68.1704H68.1465H68.1228H68.0988H68.0751H68.0512H68.0273H68.0036H67.9797H67.9557H67.9318H67.9081H67.8842H67.8602H67.8363H67.8126H67.7887H67.7648H67.7408H67.7169H67.693H67.6691H67.6454H67.6214H67.5975H67.5736H67.5497H67.5257H67.5018H67.4779H67.4539H67.43H67.4061H67.3822H67.3582H67.3343H67.3104H67.2865H67.2625H67.2384H67.2145H67.1905H67.1666H67.1427H67.1188H67.0948H67.0709H67.0468H67.0228H66.9989H66.975H66.9511H66.9271H66.903H66.8791H66.8551H66.8312H66.8073H66.7831H66.7592H66.7353H66.7114H66.6874H66.6633H66.6394H66.6154H66.5915H66.5676H66.5434H66.5195H66.4956H66.4716H66.4475H66.4236H66.3996H66.3757H66.3516H66.3276H66.3037H66.2798H66.2559H66.2317H66.2078H66.1839H66.1599H66.136H66.1119H66.0879H66.064H66.0401H66.0162H65.992H65.9681H65.9442H65.9202H65.8963H65.8724H65.8482H65.8243H65.8004H65.7765H65.7525H65.7286H65.7047H65.6808H65.6568H65.6329H65.609H65.5851H65.5609H65.537H65.513H65.4891H65.4652H65.4413H65.4173H65.3936H65.3697H65.3458H65.3219H65.2979H65.274H65.2501H65.2262H65.2022H65.1783H65.1546H65.1307H65.1067H65.0828H65.0591H65.0352H65.0113H64.9873H64.9636H64.9397H64.9158H64.8921H64.8682H64.8442H64.8205H64.7966H64.7729H64.749H64.7253H64.7013H64.6776H64.6537H64.63H64.6061H64.5824H64.5587H64.5347H64.511H64.4873H64.4634H64.4397H64.416H64.3923H64.3684H64.3447H64.321H64.2972H64.2735H64.2498H64.2261H64.2024H64.1787H64.155H64.1313H64.1076H64.0839H64.0602H64.0365H64.0128H63.9893H63.9656H63.9419H63.9184H63.8947H63.871H63.8475H63.8238H63.8001H63.7766H63.7529H63.7294H63.706H63.6823H63.6588H63.6351H63.6116H63.5881H63.5646H63.5409H63.5174H63.4939H63.4705H63.447H63.4235H63.4H63.3765H63.3531H63.3296H63.3061H63.2826H63.2593H63.2359H63.2124H63.1891H63.1656H63.1421H63.1189H63.0954H63.0721H63.0487H63.0254H63.0019H62.9787H62.9554H62.9492C62.7093 69.4118 62.5019 68.1687 62.273 66.6513C62.2416 66.4431 62.2097 66.229 62.1771 66.0103C61.9503 64.4869 61.6904 62.7423 61.3397 61.2604C61.1363 60.4008 60.8616 59.4425 60.4604 58.5506C60.0924 57.7328 59.4055 56.4807 58.1157 55.5804Z" stroke="#0284C7" stroke-width="6"/>
<path d="M10.5232 133.125L57.0463 79.875H63.6924L51.5078 97.625H93.6001L81.4155 79.875H88.0617L134.585 133.125H119.077L99.1386 106.5H45.9693L26.0309 133.125H10.5232Z" fill="#0284C7"/>
<path d="M181.248 51.456H161.152V72H155.84V27.2H161.152V46.72H181.248V27.2H186.56V72H181.248V51.456ZM193.575 72V67.712H204.711V44.288H193.575V40H209.831V67.712H220.711V72H193.575ZM202.983 30.912C202.983 29.76 203.367 28.7787 204.135 27.968C204.903 27.1147 205.884 26.688 207.079 26.688C208.316 26.688 209.34 27.1147 210.151 27.968C211.004 28.7787 211.431 29.76 211.431 30.912C211.431 32.0213 211.004 32.96 210.151 33.728C209.34 34.496 208.316 34.88 207.079 34.88C205.884 34.88 204.903 34.496 204.135 33.728C203.367 32.96 202.983 32.0213 202.983 30.912ZM223.694 40H231.31V33.664L236.302 32.256V40H253.39V44.288H236.302V59.392C236.302 62.5067 237.049 64.8107 238.542 66.304C240.078 67.7973 242.254 68.544 245.07 68.544C246.99 68.544 248.654 68.1813 250.062 67.456C251.513 66.7307 252.814 65.9413 253.966 65.088L255.63 68.864C254.137 70.0587 252.345 71.0187 250.254 71.744C248.206 72.4693 246.094 72.832 243.918 72.832C242.211 72.832 240.59 72.576 239.054 72.064C237.561 71.5947 236.238 70.848 235.086 69.824C233.934 68.8 233.017 67.4987 232.334 65.92C231.651 64.2987 231.31 62.3787 231.31 60.16V44.288H223.694V40ZM260.213 56C260.213 50.8373 261.557 46.7627 264.245 43.776C266.933 40.7467 270.773 39.232 275.765 39.232C278.453 39.232 280.757 39.68 282.677 40.576C284.64 41.4293 286.261 42.6027 287.541 44.096C288.821 45.5893 289.76 47.36 290.357 49.408C290.997 51.456 291.317 53.6533 291.317 56C291.317 58.56 290.976 60.8853 290.293 62.976C289.61 65.024 288.608 66.7733 287.285 68.224C285.962 69.6747 284.32 70.8053 282.357 71.616C280.437 72.384 278.24 72.768 275.765 72.768C273.12 72.768 270.816 72.3413 268.853 71.488C266.89 70.592 265.269 69.3973 263.989 67.904C262.709 66.4107 261.749 64.64 261.109 62.592C260.512 60.544 260.213 58.3467 260.213 56ZM265.525 56C265.525 57.4933 265.696 58.9867 266.037 60.48C266.421 61.9733 267.018 63.3173 267.829 64.512C268.64 65.7067 269.685 66.6667 270.965 67.392C272.288 68.1173 273.888 68.48 275.765 68.48C279.178 68.48 281.738 67.4347 283.445 65.344C285.194 63.2107 286.069 60.096 286.069 56C286.069 54.464 285.877 52.9707 285.493 51.52C285.152 50.0267 284.554 48.6827 283.701 47.488C282.89 46.2933 281.824 45.3333 280.501 44.608C279.221 43.8827 277.642 43.52 275.765 43.52C272.352 43.52 269.792 44.5653 268.085 46.656C266.378 48.7467 265.525 51.8613 265.525 56ZM292.956 27.2H303.324V53.696H306.844L319.452 40H325.468L311.324 55.168L322.972 67.712H327.132V72H320.54L306.844 57.536H303.324V72H298.396V31.488H292.956V27.2ZM332.227 51.2C332.227 50.816 332.206 50.3253 332.163 49.728C332.163 49.088 332.142 48.448 332.099 47.808C332.056 47.1253 331.992 46.464 331.907 45.824C331.864 45.184 331.8 44.6293 331.715 44.16H327.427V40H336.003L336.579 45.184H336.899C337.326 44.4587 337.88 43.7547 338.563 43.072C339.288 42.3467 340.12 41.7067 341.059 41.152C341.998 40.5547 343.043 40.0853 344.195 39.744C345.347 39.4027 346.563 39.232 347.843 39.232C349.806 39.232 351.534 39.4453 353.027 39.872C354.563 40.2987 355.822 41.0667 356.803 42.176C357.827 43.2427 358.595 44.7147 359.107 46.592C359.619 48.4267 359.875 50.7733 359.875 53.632V72H354.883V54.592C354.883 51.0507 354.307 48.384 353.155 46.592C352.003 44.8 349.912 43.904 346.883 43.904C345.774 43.904 344.686 44.1387 343.619 44.608C342.595 45.0347 341.656 45.6107 340.803 46.336C339.95 47.0613 339.203 47.9147 338.563 48.896C337.923 49.8347 337.454 50.8373 337.155 51.904V72H332.227V51.2ZM364.778 56C364.778 50.8373 366.122 46.7627 368.81 43.776C371.498 40.7467 375.338 39.232 380.33 39.232C383.018 39.232 385.322 39.68 387.242 40.576C389.205 41.4293 390.826 42.6027 392.106 44.096C393.386 45.5893 394.325 47.36 394.922 49.408C395.562 51.456 395.882 53.6533 395.882 56C395.882 58.56 395.541 60.8853 394.858 62.976C394.175 65.024 393.173 66.7733 391.85 68.224C390.527 69.6747 388.885 70.8053 386.922 71.616C385.002 72.384 382.805 72.768 380.33 72.768C377.685 72.768 375.381 72.3413 373.418 71.488C371.455 70.592 369.834 69.3973 368.554 67.904C367.274 66.4107 366.314 64.64 365.674 62.592C365.077 60.544 364.778 58.3467 364.778 56ZM370.09 56C370.09 57.4933 370.261 58.9867 370.602 60.48C370.986 61.9733 371.583 63.3173 372.394 64.512C373.205 65.7067 374.25 66.6667 375.53 67.392C376.853 68.1173 378.453 68.48 380.33 68.48C383.743 68.48 386.303 67.4347 388.01 65.344C389.759 63.2107 390.634 60.096 390.634 56C390.634 54.464 390.442 52.9707 390.058 51.52C389.717 50.0267 389.119 48.6827 388.266 47.488C387.455 46.2933 386.389 45.3333 385.066 44.608C383.786 43.8827 382.207 43.52 380.33 43.52C376.917 43.52 374.357 44.5653 372.65 46.656C370.943 48.7467 370.09 51.8613 370.09 56Z" fill="#0284C7"/>
<path d="M153.8 98H155.46V110.52H161.12V107.04H162.6V112H153.8V98ZM173.472 110.74C173.232 110.953 172.946 111.153 172.612 111.34C172.292 111.527 171.939 111.687 171.552 111.82C171.166 111.953 170.759 112.053 170.332 112.12C169.919 112.2 169.499 112.24 169.072 112.24C168.272 112.24 167.566 112.12 166.952 111.88C166.339 111.627 165.826 111.273 165.412 110.82C164.999 110.353 164.686 109.8 164.472 109.16C164.259 108.52 164.152 107.8 164.152 107C164.152 106.16 164.266 105.413 164.492 104.76C164.732 104.107 165.072 103.56 165.512 103.12C165.952 102.68 166.486 102.347 167.112 102.12C167.739 101.88 168.439 101.76 169.212 101.76C169.772 101.76 170.326 101.833 170.872 101.98C171.419 102.127 171.899 102.407 172.312 102.82C172.739 103.22 173.066 103.78 173.292 104.5C173.519 105.207 173.599 106.127 173.532 107.26H165.792C165.792 108.46 166.112 109.36 166.752 109.96C167.406 110.547 168.272 110.84 169.352 110.84C169.712 110.84 170.066 110.8 170.412 110.72C170.772 110.627 171.112 110.52 171.432 110.4C171.752 110.28 172.032 110.147 172.272 110C172.526 109.853 172.719 109.72 172.852 109.6L173.472 110.74ZM169.252 103.08C168.812 103.08 168.392 103.127 167.992 103.22C167.606 103.313 167.259 103.473 166.952 103.7C166.659 103.913 166.412 104.2 166.212 104.56C166.026 104.907 165.906 105.34 165.852 105.86H172.072C172.006 104.98 171.719 104.3 171.212 103.82C170.719 103.327 170.066 103.08 169.252 103.08ZM175.944 102.78C176.518 102.447 177.164 102.207 177.884 102.06C178.604 101.913 179.311 101.84 180.004 101.84C180.684 101.84 181.238 101.947 181.664 102.16C182.104 102.373 182.444 102.653 182.684 103C182.938 103.333 183.104 103.72 183.184 104.16C183.278 104.587 183.324 105.02 183.324 105.46C183.324 105.967 183.311 106.507 183.284 107.08C183.258 107.653 183.238 108.227 183.224 108.8C183.224 109.467 183.264 110.1 183.344 110.7H184.684V112H182.024L181.844 110.5H181.744C181.664 110.62 181.544 110.773 181.384 110.96C181.224 111.147 181.011 111.333 180.744 111.52C180.491 111.693 180.178 111.847 179.804 111.98C179.431 112.113 178.991 112.18 178.484 112.18C177.498 112.18 176.718 111.927 176.144 111.42C175.571 110.913 175.284 110.22 175.284 109.34C175.284 108.66 175.431 108.093 175.724 107.64C176.031 107.187 176.464 106.84 177.024 106.6C177.584 106.36 178.258 106.22 179.044 106.18C179.844 106.14 180.738 106.193 181.724 106.34C181.791 105.727 181.798 105.22 181.744 104.82C181.704 104.407 181.598 104.08 181.424 103.84C181.264 103.6 181.031 103.433 180.724 103.34C180.431 103.233 180.064 103.18 179.624 103.18C179.024 103.18 178.451 103.267 177.904 103.44C177.358 103.6 176.871 103.767 176.444 103.94L175.944 102.78ZM178.884 110.84C179.258 110.84 179.604 110.78 179.924 110.66C180.244 110.54 180.524 110.387 180.764 110.2C181.004 110.013 181.204 109.813 181.364 109.6C181.524 109.373 181.644 109.16 181.724 108.96V107.56C181.031 107.44 180.391 107.38 179.804 107.38C179.218 107.38 178.711 107.447 178.284 107.58C177.858 107.7 177.524 107.893 177.284 108.16C177.044 108.427 176.924 108.773 176.924 109.2C176.924 109.64 177.071 110.027 177.364 110.36C177.671 110.68 178.178 110.84 178.884 110.84ZM185.997 112V110.66H188.697V103.34H185.997V102H189.737L190.057 103.3H190.157C190.61 102.887 191.117 102.533 191.677 102.24C192.237 101.947 192.903 101.8 193.677 101.8C194.13 101.8 194.49 101.887 194.757 102.06C195.037 102.233 195.25 102.487 195.397 102.82C195.557 103.153 195.663 103.56 195.717 104.04C195.77 104.507 195.797 105.04 195.797 105.64L194.397 105.66C194.397 104.807 194.31 104.18 194.137 103.78C193.977 103.38 193.677 103.18 193.237 103.18C192.823 103.18 192.45 103.24 192.117 103.36C191.783 103.48 191.49 103.627 191.237 103.8C190.997 103.973 190.79 104.147 190.617 104.32C190.443 104.493 190.317 104.64 190.237 104.76V110.66H194.077V112H185.997ZM197.429 105.5C197.429 105.38 197.422 105.227 197.409 105.04C197.409 104.84 197.402 104.64 197.389 104.44C197.375 104.227 197.355 104.02 197.329 103.82C197.315 103.62 197.295 103.447 197.269 103.3H195.929V102H198.609L198.789 103.62H198.889C199.022 103.393 199.195 103.173 199.409 102.96C199.635 102.733 199.895 102.533 200.189 102.36C200.482 102.173 200.809 102.027 201.169 101.92C201.529 101.813 201.909 101.76 202.309 101.76C202.922 101.76 203.462 101.827 203.929 101.96C204.409 102.093 204.802 102.333 205.109 102.68C205.429 103.013 205.669 103.473 205.829 104.06C205.989 104.633 206.069 105.367 206.069 106.26V112H204.509V106.56C204.509 105.453 204.329 104.62 203.969 104.06C203.609 103.5 202.955 103.22 202.009 103.22C201.662 103.22 201.322 103.293 200.989 103.44C200.669 103.573 200.375 103.753 200.109 103.98C199.842 104.207 199.609 104.473 199.409 104.78C199.209 105.073 199.062 105.387 198.969 105.72V112H197.429V105.5ZM208.561 112V110.66H212.041V103.34H208.561V102H213.641V110.66H217.041V112H208.561ZM211.501 99.16C211.501 98.8 211.621 98.4933 211.861 98.24C212.101 97.9733 212.408 97.84 212.781 97.84C213.168 97.84 213.488 97.9733 213.741 98.24C214.008 98.4933 214.141 98.8 214.141 99.16C214.141 99.5067 214.008 99.8 213.741 100.04C213.488 100.28 213.168 100.4 212.781 100.4C212.408 100.4 212.101 100.28 211.861 100.04C211.621 99.8 211.501 99.5067 211.501 99.16ZM219.213 105.5C219.213 105.38 219.206 105.227 219.193 105.04C219.193 104.84 219.186 104.64 219.173 104.44C219.16 104.227 219.14 104.02 219.113 103.82C219.1 103.62 219.08 103.447 219.053 103.3H217.713V102H220.393L220.573 103.62H220.673C220.806 103.393 220.98 103.173 221.193 102.96C221.42 102.733 221.68 102.533 221.973 102.36C222.266 102.173 222.593 102.027 222.953 101.92C223.313 101.813 223.693 101.76 224.093 101.76C224.706 101.76 225.246 101.827 225.713 101.96C226.193 102.093 226.586 102.333 226.893 102.68C227.213 103.013 227.453 103.473 227.613 104.06C227.773 104.633 227.853 105.367 227.853 106.26V112H226.293V106.56C226.293 105.453 226.113 104.62 225.753 104.06C225.393 103.5 224.74 103.22 223.793 103.22C223.446 103.22 223.106 103.293 222.773 103.44C222.453 103.573 222.16 103.753 221.893 103.98C221.626 104.207 221.393 104.473 221.193 104.78C220.993 105.073 220.846 105.387 220.753 105.72V112H219.213V105.5ZM238.725 112.5C238.725 113.127 238.605 113.673 238.365 114.14C238.125 114.62 237.792 115.013 237.365 115.32C236.952 115.627 236.465 115.853 235.905 116C235.345 116.16 234.739 116.24 234.085 116.24C233.299 116.24 232.612 116.16 232.025 116C231.439 115.84 230.932 115.633 230.505 115.38L231.265 113.96C231.385 114.067 231.539 114.167 231.725 114.26C231.925 114.367 232.152 114.46 232.405 114.54C232.659 114.633 232.925 114.707 233.205 114.76C233.499 114.813 233.785 114.84 234.065 114.84C234.652 114.84 235.139 114.787 235.525 114.68C235.925 114.573 236.245 114.407 236.485 114.18C236.725 113.953 236.899 113.66 237.005 113.3C237.112 112.94 237.165 112.5 237.165 111.98V110.86H237.085C236.779 111.3 236.385 111.64 235.905 111.88C235.425 112.12 234.805 112.24 234.045 112.24C232.525 112.24 231.405 111.82 230.685 110.98C229.979 110.127 229.625 108.807 229.625 107.02C229.625 105.313 230.079 104.027 230.985 103.16C231.892 102.28 233.239 101.84 235.025 101.84C235.852 101.84 236.552 101.9 237.125 102.02C237.712 102.127 238.245 102.267 238.725 102.44V112.5ZM234.265 110.9C235.079 110.9 235.719 110.693 236.185 110.28C236.652 109.853 236.979 109.207 237.165 108.34V103.6C236.579 103.32 235.759 103.18 234.705 103.18C233.639 103.18 232.799 103.493 232.185 104.12C231.572 104.747 231.265 105.707 231.265 107C231.265 107.573 231.319 108.1 231.425 108.58C231.532 109.047 231.699 109.453 231.925 109.8C232.165 110.147 232.472 110.42 232.845 110.62C233.232 110.807 233.705 110.9 234.265 110.9ZM250.65 102H253.03V100.02L254.59 99.58V102H259.93V103.34H254.59V108.06C254.59 109.033 254.823 109.753 255.29 110.22C255.77 110.687 256.45 110.92 257.33 110.92C257.93 110.92 258.45 110.807 258.89 110.58C259.343 110.353 259.75 110.107 260.11 109.84L260.63 111.02C260.163 111.393 259.603 111.693 258.95 111.92C258.31 112.147 257.65 112.26 256.97 112.26C256.436 112.26 255.93 112.18 255.45 112.02C254.983 111.873 254.57 111.64 254.21 111.32C253.85 111 253.563 110.593 253.35 110.1C253.136 109.593 253.03 108.993 253.03 108.3V103.34H250.65V102ZM262.062 107C262.062 105.387 262.482 104.113 263.322 103.18C264.162 102.233 265.362 101.76 266.922 101.76C267.762 101.76 268.482 101.9 269.082 102.18C269.695 102.447 270.202 102.813 270.602 103.28C271.002 103.747 271.295 104.3 271.482 104.94C271.682 105.58 271.782 106.267 271.782 107C271.782 107.8 271.675 108.527 271.462 109.18C271.249 109.82 270.935 110.367 270.522 110.82C270.109 111.273 269.595 111.627 268.982 111.88C268.382 112.12 267.695 112.24 266.922 112.24C266.095 112.24 265.375 112.107 264.762 111.84C264.149 111.56 263.642 111.187 263.242 110.72C262.842 110.253 262.542 109.7 262.342 109.06C262.155 108.42 262.062 107.733 262.062 107ZM263.722 107C263.722 107.467 263.775 107.933 263.882 108.4C264.002 108.867 264.189 109.287 264.442 109.66C264.695 110.033 265.022 110.333 265.422 110.56C265.835 110.787 266.335 110.9 266.922 110.9C267.989 110.9 268.789 110.573 269.322 109.92C269.869 109.253 270.142 108.28 270.142 107C270.142 106.52 270.082 106.053 269.962 105.6C269.855 105.133 269.669 104.713 269.402 104.34C269.149 103.967 268.815 103.667 268.402 103.44C268.002 103.213 267.509 103.1 266.922 103.1C265.855 103.1 265.055 103.427 264.522 104.08C263.989 104.733 263.722 105.707 263.722 107ZM272.954 107C272.954 105.387 273.374 104.113 274.214 103.18C275.054 102.233 276.254 101.76 277.814 101.76C278.654 101.76 279.374 101.9 279.974 102.18C280.587 102.447 281.094 102.813 281.494 103.28C281.894 103.747 282.187 104.3 282.374 104.94C282.574 105.58 282.674 106.267 282.674 107C282.674 107.8 282.567 108.527 282.354 109.18C282.141 109.82 281.827 110.367 281.414 110.82C281.001 111.273 280.487 111.627 279.874 111.88C279.274 112.12 278.587 112.24 277.814 112.24C276.987 112.24 276.267 112.107 275.654 111.84C275.041 111.56 274.534 111.187 274.134 110.72C273.734 110.253 273.434 109.7 273.234 109.06C273.047 108.42 272.954 107.733 272.954 107ZM274.614 107C274.614 107.467 274.667 107.933 274.774 108.4C274.894 108.867 275.081 109.287 275.334 109.66C275.587 110.033 275.914 110.333 276.314 110.56C276.727 110.787 277.227 110.9 277.814 110.9C278.881 110.9 279.681 110.573 280.214 109.92C280.761 109.253 281.034 108.28 281.034 107C281.034 106.52 280.974 106.053 280.854 105.6C280.747 105.133 280.561 104.713 280.294 104.34C280.041 103.967 279.707 103.667 279.294 103.44C278.894 103.213 278.401 103.1 277.814 103.1C276.747 103.1 275.947 103.427 275.414 104.08C274.881 104.733 274.614 105.707 274.614 107ZM284.106 98H287.426V108.64C287.426 109.453 287.56 110.027 287.826 110.36C288.106 110.693 288.513 110.86 289.046 110.86C289.42 110.86 289.8 110.787 290.186 110.64C290.573 110.493 290.926 110.287 291.246 110.02L291.966 111.08C291.753 111.267 291.52 111.433 291.266 111.58C291.013 111.727 290.753 111.853 290.486 111.96C290.22 112.053 289.953 112.127 289.686 112.18C289.42 112.233 289.173 112.26 288.946 112.26C288.453 112.26 288.013 112.193 287.626 112.06C287.24 111.94 286.913 111.74 286.646 111.46C286.393 111.18 286.2 110.813 286.066 110.36C285.933 109.893 285.866 109.32 285.866 108.64V99.34H284.106V98ZM294.078 98H297.318V106.28H298.418L302.358 102H304.238L299.818 106.74L303.458 110.66H304.758V112H302.698L298.418 107.48H297.318V112H295.778V99.34H294.078V98ZM306.591 112V110.66H310.071V103.34H306.591V102H311.671V110.66H315.071V112H306.591ZM309.531 99.16C309.531 98.8 309.651 98.4933 309.891 98.24C310.131 97.9733 310.437 97.84 310.811 97.84C311.197 97.84 311.517 97.9733 311.771 98.24C312.037 98.4933 312.171 98.8 312.171 99.16C312.171 99.5067 312.037 99.8 311.771 100.04C311.517 100.28 311.197 100.4 310.811 100.4C310.437 100.4 310.131 100.28 309.891 100.04C309.651 99.8 309.531 99.5067 309.531 99.16ZM316.003 102H318.383V100.02L319.943 99.58V102H325.283V103.34H319.943V108.06C319.943 109.033 320.176 109.753 320.643 110.22C321.123 110.687 321.803 110.92 322.683 110.92C323.283 110.92 323.803 110.807 324.243 110.58C324.696 110.353 325.103 110.107 325.463 109.84L325.983 111.02C325.516 111.393 324.956 111.693 324.303 111.92C323.663 112.147 323.003 112.26 322.323 112.26C321.789 112.26 321.283 112.18 320.803 112.02C320.336 111.873 319.923 111.64 319.563 111.32C319.203 111 318.916 110.593 318.703 110.1C318.489 109.593 318.383 108.993 318.383 108.3V103.34H316.003V102Z" fill="#0369A1"/>
<defs>
<filter id="filter0_d_933_344" x="16.1692" y="15.5312" width="112.769" height="112.938" filterUnits="userSpaceOnUse" color-interpolation-filters="sRGB">
<feFlood flood-opacity="0" result="BackgroundImageFix"/>
<feColorMatrix in="SourceAlpha" type="matrix" values="0 0 0 0 0 0 0 0 0 0 0 0 0 0 0 0 0 0 127 0" result="hardAlpha"/>
<feOffset dy="1"/>
<feGaussianBlur stdDeviation="0.5"/>
<feComposite in2="hardAlpha" operator="out"/>
<feColorMatrix type="matrix" values="0 0 0 0 0 0 0 0 0 0 0 0 0 0 0 0 0 0 0.25 0"/>
<feBlend mode="normal" in2="BackgroundImageFix" result="effect1_dropShadow_933_344"/>
<feBlend mode="normal" in="SourceGraphic" in2="effect1_dropShadow_933_344" result="shape"/>
</filter>
</defs>
</svg>
